<svg xmlns="http://www.w3.org/2000/svg" width="200" height="99" viewBox="0 0 200 99">
    <g fill="none">
        <path fill="#FF5238" d="M83.616 21.548l16.497 9.525 16.136-9.327v4.27c-.002.993-.265 1.968-.763 2.826l-.192.322c-.486.724-1.131 1.327-1.887 1.763l-13.294 7.711-13.672-7.898c-1.757-1.014-2.835-2.892-2.825-4.92v-4.272zm0 12.718l4.17 2.423c1.25.72 2.29 1.754 3.016 3l.204.379c.594 1.15.904 2.427.904 3.723v1.655l-8.294-4.768v-6.412zm32.65.214v6.407l-8.255 4.763v-1.661c.003-1.444.383-2.862 1.102-4.113.723-1.25 1.764-2.288 3.017-3.006l4.136-2.39zM99.938 6.842L78.819 19.034v24.395l21.119 12.187 21.107-12.187V19.034L99.938 6.842zm0-6.842l19.966 11.508 7.48 4.34v31.694L99.938 63.39 72.48 47.57V15.848L99.938 0z"/>
        <g fill="#FFF">
            <path d="M13.096 13.333L5.237.356 0 .356 0 20.271 3.734 20.271 3.734 5.898 12.22 20.271 13.362 20.271 22.068 5.927 22.068 20.271 26.073 20.271 26.085.356 20.814.356zM47.853.356L36.768 20.27h4.577l1.904-3.525H56.53l1.898 3.525h4.848L52.158.356h-4.305zM45.232 13.04l4.666-8.616 4.644 8.616h-9.31zM81.316 9.107C80.881 8.717 73.08.356 73.08.356h-6.085l8.277 8.582s5.576.141 6.034.18c-1.508 1.616-2.712 2.905-3.028 3.227v7.91h5.085v-7.26L95.316.344h-5.858s-4.808 5.192-8.142 8.762zM122.678 7.949L108.887 7.949 108.887.356 104.514.356 104.514 20.271 108.887 20.271 108.887 11.893 122.678 11.893 122.678 20.271 127.051 20.271 127.051.356 122.678.356zM141.288.356L141.288 4.198 141.288 16.424 141.288 20.271 145.638 20.271 159.898 20.271 160.627 16.424 145.638 16.424 145.638 11.859 155.062 11.859 155.062 8.017 145.638 8.017 145.638 4.198 160.627 4.198 160.627.356 145.638.356zM194.593.356L186.876 13.333 179.017.356 173.774.356 173.774 20.271 177.497 20.271 177.497 5.898 185.989 20.271 187.13 20.271 195.842 5.927 195.842 20.271 199.825 20.271 199.864.356z" transform="translate(0 77.966)"/>
        </g>
    </g>
</svg>
